<?xml version="1.0" standalone="no"?>
<!DOCTYPE svg PUBLIC "-//W3C//DTD SVG 20010904//EN"
 "http://www.w3.org/TR/2001/REC-SVG-20010904/DTD/svg10.dtd">
<svg version="1.0" xmlns="http://www.w3.org/2000/svg"
 width="669.000000pt" height="582.000000pt" viewBox="0 0 669.000000 582.000000"
 preserveAspectRatio="xMidYMid meet">

<g transform="translate(0.000000,582.000000) scale(0.100000,-0.100000)"
fill="#000000" stroke="none">
<path d="M1957 4312 c-36 -41 -77 -139 -83 -199 l-7 -62 52 16 c44 15 63 15
133 5 44 -6 86 -16 92 -21 6 -5 45 -19 86 -32 41 -12 77 -23 80 -24 3 -1 22
-9 42 -18 21 -10 41 -17 45 -17 4 0 53 -18 108 -41 55 -23 116 -48 135 -56 19
-8 42 -18 51 -22 8 -5 47 -21 85 -36 87 -35 94 -41 58 -56 -35 -14 -147 2
-196 27 -16 8 -31 14 -32 12 -1 -2 -7 -14 -13 -28 -20 -48 -203 -79 -263 -45
-14 8 -31 14 -37 15 -16 0 -17 -42 -1 -58 9 -9 4 -12 -23 -12 -19 0 -66 -9
-104 -20 -84 -24 -296 -128 -345 -169 -19 -17 -59 -49 -89 -73 -67 -53 -82
-75 -61 -88 18 -12 59 -4 81 16 8 8 24 14 34 14 10 0 29 10 42 22 l23 21 0
-51 c0 -39 4 -52 15 -52 13 0 111 45 195 90 66 36 68 20 5 -43 -50 -51 -56
-67 -22 -67 31 0 125 28 151 45 12 8 63 23 113 35 51 12 95 26 99 31 9 15 24
0 23 -24 0 -21 -1 -21 -10 -2 -7 15 -8 10 -4 -17 3 -21 2 -38 -3 -38 -13 0 1
-73 16 -78 6 -2 12 1 12 6 0 6 19 30 43 54 24 23 51 55 60 71 26 41 34 33 26
-30 -11 -87 -10 -133 2 -133 6 0 25 11 43 25 18 14 36 25 40 25 13 0 86 65 86
76 0 6 7 17 15 24 13 11 15 4 15 -49 0 -34 7 -77 15 -97 13 -31 17 -34 34 -24
24 12 71 72 71 88 0 7 4 12 9 12 10 0 21 -24 21 -46 0 -20 48 -91 67 -98 13
-6 15 0 10 39 -8 51 0 56 32 19 18 -20 22 -36 20 -72 -3 -36 0 -47 11 -47 8 0
21 -4 28 -8 9 -6 12 3 12 33 0 48 8 46 51 -12 29 -41 38 -91 19 -103 -13 -8
-13 -62 1 -71 6 -3 9 -19 7 -35 -3 -20 0 -29 9 -29 31 0 2 -46 -73 -114 -34
-30 -67 -69 -74 -86 -8 -18 -20 -30 -31 -30 -11 0 -19 -3 -19 -6 0 -4 40 -51
90 -104 49 -54 95 -111 102 -126 10 -26 13 -19 25 86 7 63 11 126 9 140 -6 31
63 159 115 217 33 37 40 40 83 38 25 -1 46 2 46 6 0 3 10 9 23 12 12 3 32 9
45 12 18 6 22 3 22 -13 0 -18 5 -19 38 -15 33 4 44 1 74 -26 34 -30 35 -33 32
-90 -2 -35 1 -63 7 -67 15 -9 19 -2 27 47 l8 44 33 -33 33 -32 -32 -40 c-18
-23 -44 -49 -57 -58 -14 -9 -38 -30 -53 -46 -22 -23 -40 -30 -87 -35 -54 -6
-58 -8 -61 -33 -3 -28 12 -39 21 -15 3 7 25 19 48 26 24 7 53 15 64 18 13 4
-2 -17 -39 -58 -56 -60 -96 -115 -96 -131 0 -23 34 -1 80 50 l51 57 -31 -60
c-17 -32 -38 -67 -47 -77 -13 -14 -14 -23 -5 -41 6 -12 13 -52 16 -88 5 -55 4
-68 -9 -73 -9 -3 -18 0 -20 7 -8 23 -27 102 -31 127 -2 14 -7 36 -10 49 -11
48 -44 328 -45 386 -1 33 -4 48 -6 33 -2 -16 -11 -28 -19 -28 -8 0 -14 -1 -14
-2 0 -2 7 -24 15 -50 14 -48 7 -70 -15 -43 -7 8 -10 22 -6 30 3 9 2 13 -4 10
-17 -10 -11 -40 15 -75 29 -40 33 -70 8 -70 -14 0 -13 -3 5 -16 20 -14 31 -44
16 -44 -4 0 -22 9 -40 21 -37 23 -46 13 -14 -16 33 -30 52 -76 57 -144 5 -52
3 -66 -10 -76 -14 -10 -14 -14 6 -33 100 -96 151 -138 209 -173 37 -22 68 -44
68 -49 0 -15 -5 -14 -124 41 -108 49 -112 52 -154 115 -23 35 -46 64 -51 64
-5 0 -17 -7 -25 -16 -13 -12 -16 -42 -17 -152 -1 -138 -14 -210 -39 -204 -6 1
-8 -2 -5 -8 4 -7 -2 -14 -14 -17 -16 -4 -21 -13 -21 -40 0 -47 -35 -113 -60
-113 -24 0 -22 9 15 130 47 154 53 176 60 230 4 30 18 87 31 125 28 82 29 95
9 95 -8 0 -15 6 -15 14 0 10 12 12 50 8 47 -4 50 -3 60 22 13 35 13 36 -5 36
-8 0 -15 -6 -15 -12 -1 -7 -7 2 -15 20 -13 30 -35 44 -35 22 0 -21 -26 -9 -57
27 -34 38 -40 57 -23 68 6 3 10 17 10 31 0 13 5 24 10 24 6 0 3 12 -7 26 -13
20 -14 30 -5 44 8 13 8 29 2 51 -8 26 -6 42 10 74 19 40 27 75 13 62 -22 -23
-43 -119 -43 -199 0 -80 -9 -108 -24 -75 -3 6 -4 0 -1 -14 2 -14 8 -58 11 -97
8 -87 -6 -96 -30 -19 -11 35 -14 41 -11 17 3 -19 9 -71 12 -114 6 -77 6 -79
-15 -74 -18 5 -20 3 -13 -10 15 -28 23 -125 13 -152 -8 -23 -11 -20 -26 35 -9
33 -19 67 -22 75 -6 21 -47 66 -72 79 -74 39 -74 30 -1 -41 l76 -74 7 -75 c8
-84 -1 -125 -40 -180 -30 -43 -40 -42 -87 10 -28 32 -55 38 -88 20 -19 -10
-20 -8 -14 28 l6 38 -21 -24 c-12 -14 -24 -38 -27 -53 -9 -47 -21 -42 -48 17
-22 50 -45 66 -45 32 0 -7 -9 -29 -20 -50 -24 -44 -25 -66 -5 -73 8 -4 15 -13
15 -21 0 -10 9 -14 32 -11 26 2 33 -1 37 -17 2 -11 12 -27 23 -36 18 -16 18
-17 -14 -16 -18 1 -39 9 -48 18 -11 11 -28 14 -56 11 -38 -5 -39 -5 -11 -14
34 -12 36 -32 2 -26 -13 3 -22 1 -19 -3 3 -5 16 -9 29 -9 35 0 39 -17 6 -23
-30 -6 -97 8 -118 25 -8 7 -10 3 -6 -12 3 -12 -2 -28 -12 -40 -14 -16 -15 -24
-6 -51 15 -43 41 -62 61 -44 8 8 36 19 62 26 64 18 98 3 98 -43 0 -55 -11 -64
-59 -44 -55 21 -59 20 -31 -9 20 -21 22 -31 16 -72 -19 -133 -19 -138 0 -161
l19 -23 2 46 c1 29 12 64 29 93 15 26 36 64 47 84 11 20 24 35 28 32 5 -3 8
10 7 29 -1 21 12 57 33 97 l34 64 10 -38 11 -38 16 23 c29 43 28 14 -1 -47
-16 -32 -40 -69 -55 -81 -14 -13 -26 -32 -26 -43 0 -11 -4 -20 -9 -20 -5 0
-12 -13 -16 -30 -3 -16 -24 -51 -46 -79 -45 -56 -47 -67 -18 -115 21 -36 38
-42 107 -38 13 0 34 -8 45 -19 15 -14 30 -19 49 -15 19 4 30 0 40 -14 7 -11
27 -21 43 -23 28 -3 51 -37 26 -37 -6 0 -11 5 -11 11 0 8 -5 7 -15 -1 -13 -11
-18 -10 -28 3 -9 12 -14 13 -23 3 -8 -9 -6 -18 10 -37 16 -18 33 -25 69 -26
26 -2 64 -11 85 -22 47 -24 142 -100 142 -113 0 -6 -18 6 -39 25 -58 53 -175
107 -192 90 -15 -15 5 -30 96 -76 50 -25 101 -57 114 -71 28 -30 41 -33 41
-10 0 23 18 7 40 -36 28 -55 26 -80 -5 -80 -14 0 -28 7 -31 15 -5 13 -8 13
-21 0 -19 -20 -35 -19 -31 1 3 17 14 25 53 40 16 7 12 9 -18 12 -44 4 -67 -11
-67 -43 0 -33 41 -87 81 -109 35 -19 36 -19 83 0 51 20 79 58 74 97 -1 12 1
28 5 35 11 16 49 15 72 -2 17 -12 18 -19 8 -62 l-11 -49 40 45 c60 67 128 216
142 308 2 19 7 36 10 40 22 21 -23 -168 -55 -229 -16 -32 -17 -42 -7 -59 19
-29 30 -21 64 48 17 34 34 65 38 69 12 11 -2 -35 -24 -81 -11 -22 -17 -43 -14
-47 3 -5 24 -13 47 -19 23 -6 55 -20 70 -32 18 -12 38 -18 53 -15 25 4 30 -7
14 -33 -6 -10 -4 -24 9 -45 17 -29 17 -30 -4 -31 -22 -2 -55 43 -55 76 0 18
-30 34 -85 45 -25 5 -24 3 11 -13 34 -16 42 -25 42 -48 0 -40 -11 -50 -56 -52
-44 -3 -74 20 -54 40 8 8 21 9 47 1 43 -14 57 1 15 16 -17 5 -30 15 -30 20 0
6 -15 15 -32 20 -32 9 -32 9 -5 10 40 1 33 21 -8 21 -25 0 -33 -4 -29 -14 3
-9 -4 -16 -21 -20 -14 -4 -23 -11 -20 -16 3 -5 -11 -14 -30 -21 -19 -7 -35
-17 -35 -21 0 -4 -9 -8 -21 -8 -11 0 -17 -4 -14 -10 3 -5 25 -7 51 -3 49 6 84
-14 84 -49 0 -16 9 -18 70 -18 63 0 70 2 70 20 0 11 5 20 11 20 6 0 13 -9 16
-20 5 -19 13 -20 127 -19 66 1 113 3 103 6 -14 4 -17 10 -12 26 10 29 10 58 1
80 -5 10 -4 17 3 17 12 0 15 -6 26 -55 7 -27 8 -28 15 -10 19 46 11 76 -37
133 -27 32 -55 62 -63 69 -8 6 -11 15 -7 20 5 4 14 1 20 -8 7 -8 27 -21 45
-27 29 -10 31 -9 23 6 -5 9 -21 28 -35 41 -14 14 -26 35 -26 48 0 28 33 63 59
63 23 0 45 25 38 42 -4 9 -8 6 -12 -7 -5 -16 -16 -20 -60 -22 -30 -2 -57 2
-60 7 -11 18 6 100 21 100 8 0 14 5 14 10 0 6 7 10 15 10 22 0 18 21 -5 27
-25 7 -28 53 -4 53 10 0 14 -6 10 -15 -4 -10 1 -15 14 -15 21 0 25 17 14 58
-4 12 -11 22 -18 21 -6 -1 -24 0 -41 1 -24 2 -26 3 -10 8 11 4 31 15 45 24 16
10 35 14 53 11 30 -6 97 -67 97 -88 0 -6 6 -12 13 -12 6 -1 33 -9 59 -19 26
-10 50 -16 53 -13 8 9 8 52 1 71 -5 11 -1 23 13 35 29 24 27 29 -18 49 -35 15
-39 21 -44 63 -6 55 -3 61 29 61 13 0 24 5 24 10 0 6 -13 10 -29 10 -17 0 -32
4 -35 9 -3 5 -16 7 -29 4 -19 -4 -20 -3 -7 9 8 7 21 26 28 42 10 21 16 26 24
18 8 -8 8 -15 -2 -27 -11 -13 -11 -18 1 -30 12 -12 20 -11 57 5 47 21 48 26
32 125 -9 56 -8 61 12 76 32 25 17 49 -31 49 -47 0 -78 -10 -61 -20 12 -8 3
-40 -12 -40 -6 0 -7 8 -3 17 4 12 -3 9 -22 -10 -38 -35 -44 -34 -41 7 1 21 -5
40 -15 51 -26 26 -49 75 -43 91 3 9 -3 33 -14 54 -20 40 -20 40 -40 20 -11
-11 -20 -24 -20 -30 0 -28 -187 12 -251 54 -21 15 -39 31 -39 36 0 6 -16 10
-35 10 -37 0 -85 18 -85 32 0 4 26 8 58 9 97 1 100 11 15 44 -86 34 -137 77
-171 145 -12 25 -22 39 -22 33 0 -7 -4 -13 -8 -13 -17 0 -32 79 -32 167 0 77
3 94 21 117 12 15 18 34 15 42 -4 11 15 40 56 86 34 39 67 80 73 92 16 32 41
27 37 -7 -2 -16 4 -40 13 -54 23 -34 13 -55 -22 -47 -25 7 -27 6 -14 -9 7 -10
28 -21 45 -25 29 -8 31 -12 39 -72 4 -35 4 -67 0 -71 -4 -4 -25 -4 -47 1 -21
5 -48 5 -60 0 -18 -7 -15 -9 15 -9 68 -2 139 -46 139 -88 0 -28 -34 -53 -72
-53 -21 0 -38 -4 -38 -10 0 -5 8 -10 18 -10 46 0 132 -90 132 -139 0 -10 7
-24 15 -31 22 -18 18 -30 -10 -30 -25 0 -128 49 -195 92 l-35 23 16 -25 c25
-38 71 -66 168 -98 82 -27 88 -28 84 -11 -3 11 0 19 7 19 6 0 14 -9 17 -20 3
-11 10 -20 15 -20 12 0 0 38 -22 70 -9 14 -15 30 -13 37 2 6 -3 28 -11 48 -20
47 -21 86 -2 79 14 -5 67 92 81 148 12 46 28 52 85 32 51 -18 74 -42 86 -88 9
-38 31 -52 39 -26 4 11 28 45 53 74 59 68 86 113 72 121 -6 3 -13 0 -16 -9 -4
-11 -12 -12 -34 -5 -39 14 -43 33 -20 84 15 33 19 55 14 85 -5 33 -4 40 10 40
14 0 16 -9 10 -67 -5 -54 -4 -66 6 -56 17 15 29 85 19 110 -7 18 -18 22 -77
25 -62 3 -68 1 -64 -14 5 -21 4 -21 -37 -7 -37 13 -41 29 -6 29 21 0 23 3 16
23 -4 12 -4 87 0 166 13 213 -15 321 -81 321 -25 0 -48 29 -31 39 20 13 -17
23 -38 11 -23 -12 -81 -77 -81 -91 0 -6 -7 -9 -15 -5 -8 3 -15 1 -15 -3 0 -5
6 -11 12 -13 9 -3 8 -9 -5 -22 -9 -10 -17 -13 -17 -7 0 6 -4 11 -10 11 -5 0
-10 -9 -10 -19 0 -11 -4 -23 -10 -26 -28 -17 21 98 71 168 32 45 36 47 72 42
55 -8 110 -32 105 -47 -3 -7 6 -21 19 -31 13 -11 36 -44 52 -75 l28 -56 31 42
30 42 26 -46 c14 -26 26 -53 26 -61 0 -24 25 -8 28 18 2 13 12 33 23 44 10 12
24 35 30 53 9 27 13 30 23 19 19 -24 145 -127 155 -127 5 0 9 21 9 48 0 47 18
162 21 130 1 -21 121 -149 133 -142 4 3 8 39 8 79 l0 75 38 -16 c100 -44 191
-96 235 -135 21 -20 88 -32 100 -20 5 5 -4 29 -23 55 -17 26 -30 51 -28 56 2
6 43 -17 92 -50 49 -33 97 -60 107 -60 23 0 37 73 18 98 -7 9 7 -1 32 -24 62
-57 93 -74 134 -74 l35 0 -34 48 c-45 62 -144 156 -226 214 -73 52 -234 138
-293 158 l-39 12 21 19 c26 25 29 54 4 44 -10 -4 -35 -9 -55 -12 -21 -3 -38
-9 -38 -12 0 -10 -130 4 -161 17 -15 6 -33 20 -41 31 -10 15 -25 19 -63 19
-35 0 -44 -2 -34 -9 11 -8 9 -9 -6 -5 -11 2 -61 7 -112 11 -81 6 -97 4 -142
-16 -63 -27 -74 -45 -66 -109 6 -45 4 -52 -21 -75 -36 -33 -58 -38 -129 -27
-133 21 -155 2 -201 -175 -25 -98 -51 -156 -66 -147 -4 3 -4 13 2 24 7 13 6
21 -4 29 -21 18 -24 67 -9 145 13 68 12 72 -7 85 -12 8 -20 25 -20 41 0 15 -9
35 -20 45 -11 10 -17 22 -13 27 3 6 0 14 -8 18 -10 7 -11 18 -1 59 14 60 8 84
-19 76 -15 -5 -19 -1 -19 15 0 16 5 20 15 16 11 -4 15 3 16 27 2 52 -1 61 -29
84 -34 28 -52 29 -45 3 4 -14 0 -20 -11 -20 -9 0 -16 -4 -16 -10 0 -5 5 -10
10 -10 10 0 50 -58 50 -72 0 -4 -15 -4 -34 -1 -32 5 -34 4 -29 -17 5 -20 4
-21 -15 -9 -21 13 -39 79 -27 99 3 5 -1 10 -9 10 -23 0 -20 17 4 25 11 4 18
11 15 16 -11 17 -35 9 -44 -15 -5 -13 -17 -26 -25 -29 -23 -9 -20 -34 5 -42
l21 -7 -23 -23 c-13 -13 -37 -27 -53 -31 -28 -7 -28 -6 -24 30 4 40 -10 44
-28 8 l-10 -21 -60 28 c-32 16 -71 42 -87 60 -15 17 -32 31 -39 31 -15 0 -138
-83 -138 -93 0 -4 -20 -29 -44 -55 -25 -27 -47 -62 -51 -82 -4 -19 -16 -57
-26 -83 -11 -26 -19 -63 -19 -82 0 -28 -4 -35 -20 -35 -11 0 -27 11 -36 25
-22 34 -11 81 44 190 15 29 14 30 -4 15 -10 -8 -27 -23 -36 -35 -17 -20 -18
-19 -18 22 0 48 14 61 75 65 26 2 42 10 53 26 l14 22 -35 -15 c-20 -8 -38 -11
-41 -6 -9 13 26 39 58 43 32 3 80 44 71 59 -4 5 9 9 27 9 45 0 79 10 72 22 -3
5 -14 6 -25 3 -10 -4 -33 1 -51 9 -17 9 -35 16 -40 16 -5 0 -55 21 -111 46
-166 75 -228 101 -302 129 -174 64 -241 93 -395 169 -175 85 -238 135 -281
218 -24 46 -33 52 -52 30z m1100 -628 c3 -8 1 -20 -6 -27 -8 -8 -11 -8 -11 0
0 6 -3 18 -6 27 -3 9 -1 16 5 16 7 0 14 -7 18 -16z m343 -122 c30 -14 62 -26
70 -27 8 -1 21 -3 28 -4 22 -2 13 -18 -18 -31 -34 -14 -36 -19 -15 -46 19 -26
19 -40 -4 -63 -26 -26 -47 -122 -33 -147 10 -17 12 -16 12 11 2 49 7 63 32 94
28 36 38 38 38 8 0 -30 27 -67 49 -67 9 0 22 -5 28 -11 8 -8 22 -5 51 10 23
12 44 21 48 21 3 0 -10 -20 -30 -44 -20 -24 -36 -47 -36 -50 0 -2 23 11 51 30
71 47 103 46 57 -3 -29 -31 -7 -29 32 3 22 19 34 24 42 16 18 -18 1 -41 -52
-74 -55 -34 -63 -48 -24 -40 16 3 30 -1 35 -9 13 -21 11 -93 -4 -113 -12 -16
-18 -17 -49 -7 -20 6 -44 21 -53 31 -24 26 -35 25 -35 -2 0 -22 -1 -22 -27 5
-21 21 -25 29 -15 39 9 9 15 9 23 1 9 -9 17 -6 32 13 10 14 18 27 16 29 -2 2
-32 0 -67 -4 -46 -5 -69 -14 -90 -33 -41 -38 -185 -114 -190 -100 -2 7 -13 12
-25 12 -20 1 -20 2 -5 11 32 18 42 52 39 128 -4 118 -21 142 -72 102 -48 -37
-137 -38 -179 -1 -23 20 -26 40 -6 40 8 0 16 5 18 12 3 8 33 13 94 14 l89 1 0
32 c0 23 6 36 22 44 23 13 20 29 -9 40 -11 4 -18 -1 -23 -16 -4 -14 -8 -17
-11 -10 -3 7 2 35 11 63 9 27 14 54 10 60 -3 6 6 24 22 40 31 33 34 33 123 -8z
m220 -62 c0 -5 -4 -10 -9 -10 -6 0 -13 5 -16 10 -3 6 1 10 9 10 9 0 16 -4 16
-10z m-424 -15 c-11 -8 -25 -15 -30 -15 -6 0 -2 7 8 15 11 8 25 15 30 15 6 0
2 -7 -8 -15z m560 -14 c-8 -12 -46 -21 -46 -11 0 5 8 11 18 13 29 8 33 7 28
-2z m-667 -48 c-15 -56 -19 -66 -25 -61 -7 8 17 98 26 98 5 0 4 -17 -1 -37z
m61 15 c0 -16 -3 -19 -11 -11 -6 6 -8 16 -5 22 11 17 16 13 16 -11z m50 18 c0
-2 -8 -10 -17 -17 -16 -13 -17 -12 -4 4 13 16 21 21 21 13z m810 -244 c0 -13
-39 -46 -46 -40 -8 9 19 48 33 48 7 0 13 -4 13 -8z m-196 -43 c-3 -5 -10 -7
-15 -3 -5 3 -7 10 -3 15 3 5 10 7 15 3 5 -3 7 -10 3 -15z m-24 -51 c0 -36 -4
-35 -14 5 -4 16 -2 27 4 27 5 0 10 -14 10 -32z m333 -7 c4 0 7 -5 7 -10 0 -5
-23 -11 -50 -13 -52 -3 -58 0 -38 20 10 10 31 10 81 3z m-557 -76 c7 -42 44
-102 44 -71 0 9 5 16 11 16 12 0 79 -71 79 -83 0 -11 -70 0 -126 19 -36 12
-49 12 -113 -5 -57 -15 -71 -16 -71 -5 0 7 9 18 21 24 11 6 29 26 39 43 15 24
20 27 20 13 0 -40 39 19 65 99 5 16 8 17 15 5 5 -8 12 -33 16 -55z m604 55 c0
-5 -4 -10 -10 -10 -5 0 -10 5 -10 10 0 6 5 10 10 10 6 0 10 -4 10 -10z m-21
-49 c22 -14 15 -70 -15 -113 -36 -52 -138 -144 -187 -169 -21 -11 -41 -27 -44
-35 -8 -20 16 -62 39 -70 10 -3 18 -10 18 -15 0 -5 -18 3 -41 18 -40 26 -41
26 -52 7 -10 -17 -12 -16 -18 14 -8 41 5 96 30 120 9 9 30 38 45 65 15 26 31
47 36 47 6 0 10 6 10 14 0 8 20 39 46 70 40 50 49 56 82 56 20 0 43 -4 51 -9z
m-409 -56 c0 -18 21 -20 38 -3 18 18 28 0 14 -23 -9 -13 -11 -36 -7 -63 5 -30
3 -46 -6 -51 -8 -5 -10 -4 -5 3 5 8 0 12 -13 12 -24 0 -40 25 -33 52 4 15 7
16 21 6 15 -12 15 -11 1 7 -8 11 -25 28 -37 38 -30 24 -29 37 2 37 16 0 25 -6
25 -15z m-380 -54 c0 -12 -25 -19 -67 -19 -22 -1 -33 4 -33 14 0 10 13 14 50
14 28 0 50 -4 50 -9z m-17 -72 c-24 -22 -43 -45 -43 -50 0 -5 -4 -9 -10 -9
-12 0 -13 59 -2 76 8 13 34 21 72 23 24 1 23 -2 -17 -40z m667 -154 c19 -22 7
-41 -13 -21 -18 19 -22 36 -8 36 5 0 14 -7 21 -15z m85 -13 c0 -33 -17 -31
-21 1 -2 18 1 27 9 24 7 -2 12 -13 12 -25z m-929 -21 c-8 -53 -23 -91 -36 -91
-15 0 -12 67 5 100 23 44 39 38 31 -9z m676 -53 c-7 -7 -12 -8 -12 -2 0 6 3
14 7 17 3 4 9 5 12 2 2 -3 -1 -11 -7 -17z m70 -38 c15 0 28 -4 28 -10 0 -15
-76 -12 -89 4 -9 11 -9 15 1 19 7 2 17 1 23 -4 5 -5 22 -9 37 -9z m144 -5 c15
-11 16 -14 3 -15 -8 0 -24 7 -35 15 -15 11 -16 14 -3 15 8 0 24 -7 35 -15z
m-351 -40 c-16 -13 -31 -22 -34 -20 -5 6 41 44 54 44 6 0 -3 -11 -20 -24z
m443 11 c1 -2 0 -11 -4 -20 -7 -18 -31 -16 -26 3 1 6 -5 11 -13 11 -8 0 -15 5
-15 11 0 9 47 5 58 -5z m-964 -58 c-7 -70 -18 -92 -29 -58 -11 36 11 120 32
120 2 0 1 -28 -3 -62z m1104 39 c2 -10 -2 -25 -10 -34 -7 -9 -12 -24 -10 -35
4 -25 -11 -23 -61 9 -30 19 -37 28 -25 31 9 2 24 14 33 28 19 30 68 31 73 1z
m-223 -92 c11 -5 60 -9 108 -11 48 -1 90 -4 93 -7 3 -3 -8 -13 -24 -21 -25
-13 -40 -14 -89 -5 -105 20 -166 57 -200 124 -13 26 -7 23 38 -21 30 -28 63
-55 74 -59z m-8 90 c3 -9 3 -18 1 -21 -9 -9 -38 8 -38 22 0 19 29 18 37 -1z
m-115 -196 c19 -61 22 -99 9 -99 -15 0 -24 20 -32 65 -3 22 -10 53 -14 69 -6
22 -5 28 6 24 8 -3 21 -29 31 -59z m-501 -356 c3 -141 -3 -207 -20 -220 -9 -7
-20 -11 -26 -9 -13 4 -8 116 6 133 7 7 11 46 10 88 -1 61 1 75 14 75 12 0 15
-14 16 -67z m37 -38 c0 -46 -12 -69 -20 -37 -7 25 3 93 12 87 5 -3 8 -25 8
-50z m155 -15 c64 -47 157 -90 197 -90 31 0 40 -14 16 -23 -20 -8 -121 20
-175 48 -38 19 -111 86 -111 101 0 12 27 -1 73 -36z m-573 -164 c0 -3 -4 -8
-10 -11 -5 -3 -10 -1 -10 4 0 6 5 11 10 11 6 0 10 -2 10 -4z m30 -26 c0 -5 -4
-10 -10 -10 -5 0 -10 5 -10 10 0 6 5 10 10 10 6 0 10 -4 10 -10z m360 0 c0 -5
-7 -10 -15 -10 -8 0 -15 -6 -15 -14 0 -15 -37 -32 -47 -23 -13 13 10 46 35 50
15 2 30 5 35 6 4 0 7 -3 7 -9z m-390 -45 c-7 -9 -15 -13 -17 -11 -7 7 7 26 19
26 6 0 6 -6 -2 -15z m876 -20 c20 -48 18 -62 -10 -67 -20 -4 -27 1 -42 34 -17
37 -12 67 6 38 8 -12 10 -10 10 8 0 33 19 27 36 -13z m-486 5 c16 0 33 -43 37
-90 6 -86 15 -145 24 -155 12 -12 12 -35 0 -35 -5 0 -13 9 -16 20 -3 11 -15
20 -25 20 -25 0 -49 73 -57 174 -6 73 -5 79 11 73 10 -4 22 -7 26 -7z m-420
-4 c0 -3 -4 -8 -10 -11 -5 -3 -10 -1 -10 4 0 6 5 11 10 11 6 0 10 -2 10 -4z
m1240 -51 c0 -8 5 -15 10 -15 6 0 10 -9 10 -20 0 -28 -34 -26 -47 3 -5 12 -8
28 -6 35 6 17 33 15 33 -3z m-994 -22 c-4 -16 -11 -66 -16 -113 -5 -47 -9 -88
-9 -92 -1 -10 -31 -38 -41 -38 -5 0 -12 20 -16 45 -7 47 -12 52 -18 19 -3 -11
-9 -31 -15 -46 -10 -27 -9 -28 18 -28 16 0 48 -7 72 -16 46 -17 158 -25 166
-11 2 4 -4 7 -14 7 -15 0 -16 2 -3 10 13 9 13 10 0 10 -12 1 -11 4 4 15 10 8
24 24 30 37 13 26 46 37 46 15 0 -8 7 -17 15 -21 28 -10 17 -44 -20 -62 -35
-16 -51 -42 -17 -29 26 10 153 26 163 19 5 -3 9 2 9 10 0 9 5 16 10 16 6 0 10
-7 10 -16 0 -25 -20 -55 -32 -48 -5 4 -14 1 -18 -6 -5 -8 -18 -15 -29 -17 -16
-2 -21 3 -22 20 -1 21 -2 19 -15 -22 -4 -11 -10 -9 -28 8 -23 22 -49 24 -89 6
-11 -4 -23 -3 -30 4 -17 17 -31 13 -17 -4 7 -9 10 -18 7 -22 -11 -10 -37 18
-38 41 0 20 0 20 -9 -2 l-10 -22 -22 22 c-20 20 -23 21 -26 5 -4 -22 -12 -22
-67 5 l-45 22 -22 -22 -22 -21 35 5 c19 2 41 0 49 -5 22 -15 5 -24 -20 -11
-18 9 -25 8 -40 -5 -12 -11 -26 -14 -39 -10 -15 5 -21 2 -21 -9 0 -10 -9 -16
-21 -16 -17 0 -20 -5 -17 -25 6 -28 -6 -34 -16 -9 -12 32 -5 61 19 84 14 13
25 29 25 36 0 8 16 30 36 50 29 28 38 46 43 87 5 36 11 51 20 49 10 -2 12 4 7
22 -6 25 8 45 19 26 9 -14 25 -13 25 3 0 19 38 77 51 77 7 0 9 -10 5 -27z
m712 -35 c6 -6 12 -14 12 -19 0 -20 55 -61 94 -68 23 -4 51 -13 61 -19 26 -15
3 -15 -29 -1 -22 10 -28 9 -43 -9 -28 -32 -59 -36 -82 -13 -28 28 -28 55 -1
48 11 -3 20 -1 20 4 0 12 -22 11 -54 -1 -35 -13 -43 5 -11 23 l26 13 -25 12
c-34 15 -37 57 -3 46 12 -3 28 -11 35 -16z m-318 -8 c0 -11 -4 -20 -9 -20 -11
0 -22 26 -14 34 12 12 23 5 23 -14z m4 -70 c7 -44 -1 -93 -14 -85 -12 7 -24
91 -16 110 10 27 23 16 30 -25z m746 21 c0 -12 -20 -25 -27 -18 -7 7 6 27 18
27 5 0 9 -4 9 -9z m-1127 -103 l-10 -53 -1 75 c-1 60 1 71 10 53 8 -16 8 -39
1 -75z m1023 -8 c13 0 24 -4 24 -10 0 -13 -37 -13 -45 0 -4 6 -14 8 -23 6 -21
-7 -50 10 -38 21 4 4 13 8 19 8 7 0 14 16 16 35 l4 35 10 -47 c8 -41 13 -48
33 -48z m-344 53 c26 -23 22 -34 -9 -32 -16 1 -40 -2 -55 -6 -24 -6 -28 -4
-28 14 0 36 61 52 92 24z m369 -16 c-8 -8 -11 -7 -11 4 0 20 13 34 18 19 3 -7
-1 -17 -7 -23z m-471 3 c0 -5 -7 -10 -16 -10 -8 0 -12 5 -9 10 3 6 10 10 16
10 5 0 9 -4 9 -10z m360 0 c0 -5 -6 -10 -14 -10 -8 0 -18 5 -21 10 -3 6 3 10
14 10 12 0 21 -4 21 -10z m203 -30 c-10 -11 -22 -20 -27 -20 -5 0 -1 9 9 20
10 11 22 20 26 20 5 0 1 -9 -8 -20z m-728 -10 c-3 -5 -10 -10 -16 -10 -5 0 -9
5 -9 10 0 6 7 10 16 10 8 0 12 -4 9 -10z m486 -6 c64 -19 73 -26 94 -68 15
-29 15 -32 -6 -48 -28 -23 -50 -23 -83 3 -30 23 -34 54 -9 67 15 9 14 10 -3
15 -67 19 -116 18 -159 -3 -25 -12 -45 -25 -46 -28 0 -4 -1 -24 -3 -44 -2 -20
-10 -48 -19 -62 -21 -31 -21 -40 -2 -32 8 3 15 1 15 -3 0 -5 9 -7 20 -4 21 6
27 -6 11 -22 -5 -6 -18 -33 -29 -62 l-19 -51 36 18 c39 20 52 23 94 21 37 -1
35 -21 -2 -21 -61 0 -135 -46 -139 -86 -4 -50 -12 -74 -23 -74 -8 0 -9 11 -4
33 4 17 9 42 12 55 5 20 2 22 -41 22 -35 0 -46 -4 -46 -15 0 -21 -19 -27 -55
-16 l-30 9 32 1 c22 1 34 7 38 20 6 19 33 31 73 31 15 0 22 6 22 20 0 13 -5
18 -15 14 -11 -5 -13 -2 -9 10 5 14 -4 16 -73 16 l-79 0 -37 50 c-20 27 -37
52 -37 55 0 18 44 -10 89 -57 12 -12 29 -16 56 -14 35 3 46 11 88 62 45 55 48
62 42 102 -5 33 -3 43 9 48 21 8 21 24 0 24 -8 0 -12 5 -8 11 4 6 20 9 39 6
17 -3 38 -1 46 4 22 14 100 11 160 -7z m-434 -2 c7 -5 9 -13 3 -21 -4 -8 -4
-25 1 -38 5 -14 9 -26 9 -29 0 -9 -56 9 -66 22 -6 8 -15 14 -20 14 -4 0 -3 -5
4 -12 17 -17 15 -48 -3 -48 -9 0 -18 7 -22 16 -8 21 10 70 25 67 6 -2 16 6 22
17 11 21 27 25 47 12z m88 -2 c10 -16 -23 -60 -45 -60 -39 0 -37 55 3 63 12 2
25 5 29 6 4 0 10 -4 13 -9z m62 -19 c9 -14 9 -29 2 -55 -14 -50 -34 -60 -26
-13 5 32 3 37 -13 37 -14 0 -18 5 -13 18 6 16 22 32 33 32 3 0 11 -9 17 -19z
m146 -56 c-4 -24 -2 -35 6 -35 7 0 10 -4 7 -8 -3 -5 4 -15 15 -22 22 -16 25
-29 7 -26 -21 3 -39 17 -33 25 2 5 -2 17 -10 27 -15 19 -15 19 -30 0 -14 -19
-15 -18 -15 11 0 33 22 63 45 63 10 0 12 -9 8 -35z m297 -37 c0 -34 -13 -29
-25 10 -5 16 -2 22 9 22 11 0 16 -10 16 -32z m-864 -33 c27 -8 64 -15 82 -15
18 0 32 -5 33 -12 0 -10 2 -10 6 0 2 6 16 12 30 12 24 0 25 -2 19 -42 -4 -23
-14 -50 -23 -60 -14 -16 -12 -18 26 -34 22 -9 41 -21 41 -26 0 -6 -8 -7 -17
-4 -9 4 -37 10 -62 13 -37 5 -41 8 -27 18 32 24 11 48 -23 26 -8 -5 -11 -16
-7 -26 5 -14 2 -16 -16 -10 -46 14 -163 23 -175 13 -10 -8 -13 -6 -13 6 0 13
11 16 53 17 42 0 48 2 29 10 -19 7 -23 15 -20 41 3 28 -1 34 -20 36 -13 2 -64
-10 -113 -27 -61 -21 -109 -31 -149 -31 -33 0 -60 2 -60 4 0 2 -2 10 -5 18 -4
10 12 13 72 14 61 1 99 9 178 37 55 20 103 36 106 36 3 1 28 -6 55 -14z m860
-120 c-4 -14 -11 -25 -16 -25 -12 0 -14 103 -2 114 10 11 25 -60 18 -89z m-52
49 c9 -24 0 -29 -19 -11 -19 19 -19 27 -1 27 8 0 17 -7 20 -16z m-924 -4 c0
-5 -5 -10 -11 -10 -5 0 -7 5 -4 10 3 6 8 10 11 10 2 0 4 -4 4 -10z m710 -16
c0 -8 -4 -14 -10 -14 -5 0 -10 9 -10 21 0 11 5 17 10 14 6 -3 10 -13 10 -21z
m-790 -10 c0 -8 -71 -36 -78 -30 -3 3 10 12 29 20 37 17 49 19 49 10z m68 -11
c-3 -17 -79 -62 -105 -63 -25 0 -12 16 22 29 19 7 40 21 45 32 13 24 43 25 38
2z m347 7 c3 -5 1 -10 -4 -10 -6 0 -11 5 -11 10 0 6 2 10 4 10 3 0 8 -4 11
-10z m40 -50 c3 -5 -1 -10 -9 -10 -9 0 -16 5 -16 10 0 6 4 10 9 10 6 0 13 -4
16 -10z m-515 -10 c0 -10 -6 -11 -79 -14 -28 0 -46 4 -48 12 -4 9 13 12 61 12
37 0 66 -4 66 -10z m856 -67 c-11 -11 -19 6 -11 24 8 17 8 17 12 0 3 -10 2
-21 -1 -24z m-798 10 c-2 -12 -13 -18 -33 -18 -48 0 -43 -28 10 -56 39 -21 61
-49 37 -49 -22 0 -107 68 -110 88 -2 12 0 22 5 23 23 2 43 8 60 18 26 15 35
13 31 -6z m148 -45 c18 -18 49 -60 70 -93 33 -52 39 -69 42 -130 2 -38 -1 -81
-6 -95 l-9 -24 -13 24 c-7 14 -31 48 -52 77 -46 63 -49 77 -7 37 l31 -29 -7
35 c-10 51 -32 81 -104 141 -46 39 -59 55 -46 57 21 5 97 -59 137 -114 16 -22
36 -63 44 -90 l14 -49 -6 45 c-11 91 -56 162 -142 222 -23 16 -40 33 -37 39 9
13 54 -13 91 -53z m64 38 c0 -8 7 -16 15 -19 36 -15 96 -189 76 -224 -6 -12
-14 1 -30 48 -12 35 -39 93 -60 129 -22 36 -37 68 -34 72 8 13 33 9 33 -6z
m148 -72 c7 -27 16 -87 19 -134 4 -69 3 -88 -9 -98 -12 -10 -17 -10 -25 0 -14
17 -24 128 -12 128 5 0 9 -7 9 -15 0 -8 4 -15 8 -15 11 0 -5 141 -18 154 -14
14 -13 39 3 34 6 -3 18 -27 25 -54z m99 50 c-3 -3 -12 -4 -19 -1 -8 3 -5 6 6
6 11 1 17 -2 13 -5z m283 -72 c0 -13 -12 -22 -22 -16 -10 6 -1 24 13 24 5 0 9
-4 9 -8z m-251 -94 c-18 -44 -22 -26 -8 39 12 53 14 55 17 24 2 -18 -2 -46 -9
-63z m288 60 c-3 -7 -5 -2 -5 12 0 14 2 19 5 13 2 -7 2 -19 0 -25z m-321 -82
c-4 -33 -16 -79 -27 -101 l-19 -40 6 65 c3 36 10 83 16 105 6 22 11 47 10 55
-2 10 1 9 9 -4 7 -11 9 -40 5 -80z m260 49 c-11 -8 -29 -15 -39 -15 -16 0 -17
3 -7 15 7 8 24 15 39 15 25 -1 25 -1 7 -15z m-16 -54 c0 -5 -7 -14 -15 -21
-12 -10 -15 -10 -15 2 0 8 3 18 7 21 9 10 23 9 23 -2z m68 -27 c28 -19 30 -39
3 -24 -27 14 -31 13 -31 -10 0 -18 -3 -19 -20 -10 -23 12 -26 30 -8 48 16 16
29 15 56 -4z m-158 -34 c0 -5 -5 -10 -11 -10 -5 0 -7 5 -4 10 3 6 8 10 11 10
2 0 4 -4 4 -10z m208 -137 c15 -9 28 -17 29 -18 8 -4 -12 -45 -24 -49 -11 -4
-13 -2 -9 9 3 8 1 15 -4 15 -6 0 -10 -7 -10 -17 0 -14 -2 -14 -20 2 -19 17
-19 19 -4 37 16 17 16 18 1 18 -10 0 -17 5 -17 10 0 15 28 12 58 -7z m-218
-133 c0 -5 -7 -10 -16 -10 -8 0 -12 5 -9 10 3 6 10 10 16 10 5 0 9 -4 9 -10z"/>
<path d="M3351 3369 c-14 -5 -34 -8 -45 -7 -27 4 -26 -4 3 -73 15 -35 34 -62
51 -73 41 -24 45 -20 16 15 -29 34 -32 49 -14 67 17 17 28 15 29 -5 0 -15 2
-15 9 2 13 30 12 35 -8 35 -28 0 -34 11 -15 32 18 20 11 22 -26 7z"/>
<path d="M4209 1297 c15 -18 51 -23 51 -7 0 6 -6 10 -14 10 -8 0 -23 3 -33 7
-16 6 -16 5 -4 -10z"/>
<path d="M3916 1155 c-9 -26 -7 -32 5 -12 6 10 9 21 6 23 -2 3 -7 -2 -11 -11z"/>
<path d="M3565 1161 c-3 -5 -1 -12 5 -16 5 -3 10 1 10 9 0 18 -6 21 -15 7z"/>
<path d="M3513 3653 c-16 -6 -17 -33 -3 -33 11 0 26 28 19 34 -2 2 -10 1 -16
-1z"/>
<path d="M3670 3613 c0 -13 29 -38 35 -31 3 3 -4 13 -15 23 -11 10 -20 13 -20
8z"/>
<path d="M0 2685 l0 -55 63 0 c85 0 182 -17 226 -40 50 -25 117 -99 132 -146
9 -29 14 -240 20 -839 6 -768 10 -852 40 -1005 48 -248 193 -433 407 -518 63
-25 76 -27 227 -26 152 0 164 1 247 31 155 54 277 143 494 360 73 73 136 133
139 133 3 0 5 -119 5 -265 l0 -265 69 0 c66 0 85 6 447 155 208 85 380 157
382 160 5 5 -15 74 -27 94 -5 8 -25 5 -67 -10 -73 -25 -168 -30 -208 -9 -44
23 -83 78 -103 145 -16 55 -17 145 -21 1108 l-3 1047 -445 0 -444 0 0 -53 0
-53 99 -12 c226 -26 290 -88 311 -299 5 -54 10 -427 10 -829 l0 -732 -87 -80
c-127 -115 -217 -180 -309 -223 -179 -85 -323 -90 -467 -17 -102 51 -152 117
-193 254 -17 54 -19 137 -24 1049 l-5 990 -457 3 -458 2 0 -55z"/>
<path d="M3482 2680 c0 -19 2 -27 5 -17 2 9 2 25 0 35 -3 9 -5 1 -5 -18z"/>
<path d="M3624 2623 c-16 -16 -15 -18 11 -26 21 -7 31 -5 43 7 15 15 15 18 2
26 -22 14 -36 12 -56 -7z"/>
<path d="M3515 2600 c-3 -5 -3 -15 1 -21 6 -11 23 6 24 24 0 10 -18 9 -25 -3z"/>
<path d="M3380 2516 c0 -2 8 -10 18 -17 15 -13 16 -12 3 4 -13 16 -21 21 -21
13z"/>
<path d="M3686 2451 c-5 -7 2 -11 16 -11 13 0 34 -3 48 -6 18 -5 22 -4 15 4
-16 17 -71 26 -79 13z"/>
<path d="M2993 2363 c-22 -8 11 -55 75 -106 32 -26 69 -59 81 -73 25 -29 33
-28 25 1 -3 11 -32 38 -64 60 -72 48 -86 71 -38 60 51 -11 61 -11 65 1 6 19
-114 67 -144 57z"/>
<path d="M4353 2267 c-26 -38 -53 -100 -53 -122 0 -21 33 -19 53 3 20 22 48
152 33 152 -6 0 -21 -15 -33 -33z"/>
<path d="M3074 1959 c3 -15 8 -38 12 -52 5 -22 3 -24 -20 -20 -28 6 -36 -11
-11 -21 9 -3 19 -15 23 -26 7 -19 9 -18 23 12 15 31 15 36 -8 83 -14 28 -22
38 -19 24z"/>
<path d="M4152 1830 c-18 -17 -20 -23 -10 -35 11 -11 15 -11 23 -1 6 7 16 11
23 9 13 -5 15 6 6 31 -8 21 -16 20 -42 -4z"/>
<path d="M4216 1027 c-31 -65 -34 -97 -7 -97 27 0 38 19 43 70 3 25 6 51 9 59
2 7 -1 15 -8 18 -7 2 -23 -19 -37 -50z"/>
<path d="M4141 961 c-17 -11 -20 -82 -4 -88 7 -3 14 13 19 42 7 51 5 58 -15
46z"/>
<path d="M3039 898 c-55 -38 -85 -84 -68 -104 15 -18 29 -8 29 20 0 25 17 46
37 46 7 0 13 -9 13 -20 0 -13 -5 -18 -15 -14 -8 4 -15 2 -15 -4 0 -14 42 -23
56 -11 19 15 23 67 6 74 -12 5 -12 9 3 25 27 30 5 24 -46 -12z"/>
<path d="M3110 852 c0 -5 -14 -30 -31 -56 -34 -51 -34 -50 -2 -60 19 -6 23 -2
28 31 3 21 10 48 16 61 11 29 11 32 -1 32 -5 0 -10 -4 -10 -8z"/>
<path d="M3142 793 c3 -35 5 -37 63 -53 33 -9 70 -22 83 -28 16 -9 22 -10 22
-1 0 6 6 9 13 6 8 -3 19 -2 26 3 26 15 -133 110 -184 110 -24 0 -26 -3 -23
-37z"/>
<path d="M4160 805 c-15 -19 -5 -48 32 -91 33 -38 58 -47 34 -12 -20 28 -20
42 -2 35 15 -6 26 20 26 61 0 19 -5 22 -39 22 -21 0 -44 -6 -51 -15z"/>
<path d="M2923 754 c-9 -25 19 -98 40 -102 14 -3 17 1 12 21 -4 14 -2 28 3 31
6 3 7 18 3 34 -9 32 -47 43 -58 16z"/>
<path d="M3030 730 c-1 -8 -5 -36 -9 -62 -4 -27 -6 -48 -4 -48 18 0 43 25 43
43 -1 27 -28 88 -30 67z"/>
<path d="M3180 714 c25 -29 110 -56 110 -34 0 13 -74 50 -101 50 -18 0 -20 -2
-9 -16z"/>
<path d="M3155 690 c-3 -5 -3 -14 0 -20 7 -12 -20 -67 -48 -97 -22 -25 -47
-29 -63 -13 -7 7 -9 1 -6 -20 4 -27 2 -30 -22 -30 -29 0 -35 14 -9 24 12 5 13
10 5 18 -15 15 -42 -8 -42 -37 0 -23 28 -55 49 -55 8 0 11 -6 7 -15 -5 -13 13
-15 124 -15 71 0 131 4 134 8 3 5 -8 21 -23 36 -45 43 -66 99 -54 141 12 37 4
45 -18 19 -7 -9 -12 -38 -11 -72 2 -69 -15 -97 -65 -111 -48 -14 -76 -14 -68
-1 3 6 14 10 24 10 9 0 32 16 51 35 37 38 31 49 -7 13 -27 -26 -43 -16 -23 15
40 64 92 151 97 163 6 16 -22 20 -32 4z"/>
<path d="M3590 658 c0 -14 23 -58 32 -58 4 0 8 4 8 9 0 11 -39 59 -40 49z"/>
<path d="M3250 617 c0 -18 7 -43 16 -55 20 -29 91 -65 112 -57 13 5 4 14 -34
35 -40 24 -53 38 -64 70 -16 48 -30 52 -30 7z"/>
<path d="M3567 578 c-6 -21 -2 -36 7 -27 10 11 16 49 8 49 -5 0 -12 -10 -15
-22z"/>
<path d="M3888 553 c7 -3 16 -2 19 1 4 3 -2 6 -13 5 -11 0 -14 -3 -6 -6z"/>
<path d="M2926 518 c-5 -16 -5 -36 0 -45 7 -16 8 -15 11 5 3 12 3 32 0 45 -3
21 -4 20 -11 -5z"/>
<path d="M3455 486 c-27 -13 -59 -31 -70 -40 -19 -15 -18 -15 19 -16 25 0 43
6 52 18 13 16 15 16 28 0 9 -12 27 -18 54 -18 29 0 42 5 47 18 6 16 7 16 20
-1 11 -15 24 -17 71 -14 45 2 54 5 37 11 -13 5 -23 12 -23 17 0 15 19 10 40
-11 24 -24 30 -25 30 -6 0 8 -14 22 -32 30 -27 14 -34 14 -47 2 -9 -7 -25 -12
-36 -9 -11 2 -30 5 -42 6 -13 1 -23 5 -23 8 0 7 -47 29 -63 29 -7 0 -34 -11
-62 -24z"/>
<path d="M3308 433 c7 -3 16 -2 19 1 4 3 -2 6 -13 5 -11 0 -14 -3 -6 -6z"/>
</g>
</svg>
